<svg xmlns="http://www.w3.org/2000/svg" xmlns:xlink="http://www.w3.org/1999/xlink" width="927" zoomAndPan="magnify" viewBox="0 0 695.25 277.499997" height="370" preserveAspectRatio="xMidYMid meet" version="1.0"><defs><g/></defs><g fill="#ffcc04" fill-opacity="1"><g transform="translate(129.13719, 228.1879)"><g><path d="M 28.640625 -1.5 C 27.359375 -0.851562 25.875 -0.347656 24.1875 0.015625 C 22.5 0.390625 20.59375 0.578125 18.46875 0.578125 C 15.894531 0.578125 13.617188 0.144531 11.640625 -0.71875 C 9.660156 -1.59375 7.992188 -2.804688 6.640625 -4.359375 C 5.296875 -5.921875 4.28125 -7.769531 3.59375 -9.90625 C 2.90625 -12.039062 2.5625 -14.363281 2.5625 -16.875 C 2.5625 -19.382812 2.90625 -21.707031 3.59375 -23.84375 C 4.28125 -25.976562 5.296875 -27.828125 6.640625 -29.390625 C 7.992188 -30.953125 9.660156 -32.171875 11.640625 -33.046875 C 13.617188 -33.929688 15.894531 -34.375 18.46875 -34.375 C 20.59375 -34.375 22.5 -34.1875 24.1875 -33.8125 C 25.875 -33.445312 27.359375 -32.945312 28.640625 -32.3125 L 27.578125 -28.40625 C 26.359375 -28.882812 25.097656 -29.265625 23.796875 -29.546875 C 22.492188 -29.835938 21.132812 -29.984375 19.71875 -29.984375 C 19.5 -29.984375 19.28125 -29.984375 19.0625 -29.984375 C 18.851562 -29.984375 18.640625 -29.96875 18.421875 -29.9375 C 16.773438 -29.875 15.328125 -29.503906 14.078125 -28.828125 C 12.828125 -28.160156 11.773438 -27.253906 10.921875 -26.109375 C 10.066406 -24.972656 9.421875 -23.613281 8.984375 -22.03125 C 8.554688 -20.457031 8.34375 -18.738281 8.34375 -16.875 C 8.34375 -15.007812 8.554688 -13.289062 8.984375 -11.71875 C 9.421875 -10.144531 10.066406 -8.785156 10.921875 -7.640625 C 11.773438 -6.503906 12.828125 -5.597656 14.078125 -4.921875 C 15.328125 -4.242188 16.773438 -3.875 18.421875 -3.8125 C 18.640625 -3.78125 18.851562 -3.765625 19.0625 -3.765625 C 19.28125 -3.765625 19.5 -3.765625 19.71875 -3.765625 C 21.132812 -3.765625 22.492188 -3.90625 23.796875 -4.1875 C 25.097656 -4.476562 26.359375 -4.867188 27.578125 -5.359375 Z M 28.640625 -1.5 "/></g></g></g><g fill="#ffcc04" fill-opacity="1"><g transform="translate(186.362775, 228.1879)"><g/></g></g><g fill="#ffcc04" fill-opacity="1"><g transform="translate(227.005447, 228.1879)"><g><path d="M 19.484375 -33.75 L 31 0 L 25.078125 0 L 22.328125 -8.34375 L 9.78125 -8.34375 L 7.046875 0 L 1.109375 0 L 12.640625 -33.75 Z M 16.015625 -28.78125 L 10.515625 -12.296875 L 21.5 -12.296875 Z M 16.015625 -28.78125 "/></g></g></g><g fill="#ffcc04" fill-opacity="1"><g transform="translate(285.24336, 228.1879)"><g/></g></g><g fill="#ffcc04" fill-opacity="1"><g transform="translate(325.886032, 228.1879)"><g><path d="M 18.421875 -33.703125 C 19.640625 -33.703125 20.851562 -33.492188 22.0625 -33.078125 C 23.269531 -32.660156 24.351562 -32.03125 25.3125 -31.1875 C 26.28125 -30.351562 27.0625 -29.3125 27.65625 -28.0625 C 28.25 -26.8125 28.546875 -25.347656 28.546875 -23.671875 C 28.546875 -21.359375 27.914062 -19.460938 26.65625 -17.984375 C 25.40625 -16.503906 23.800781 -15.523438 21.84375 -15.046875 L 20.921875 -14.953125 L 29.65625 0 L 23.8125 0 L 15.578125 -13.9375 L 9.265625 -13.9375 L 9.265625 0 L 3.71875 0 L 3.71875 -33.75 Z M 17.015625 -17.890625 C 17.828125 -17.890625 18.578125 -18.007812 19.265625 -18.25 C 19.953125 -18.488281 20.5625 -18.847656 21.09375 -19.328125 C 21.625 -19.816406 22.039062 -20.429688 22.34375 -21.171875 C 22.65625 -21.910156 22.8125 -22.773438 22.8125 -23.765625 C 22.8125 -24.734375 22.65625 -25.59375 22.34375 -26.34375 C 22.039062 -27.101562 21.625 -27.734375 21.09375 -28.234375 C 20.5625 -28.734375 19.953125 -29.109375 19.265625 -29.359375 C 18.578125 -29.617188 17.828125 -29.75 17.015625 -29.75 L 9.359375 -29.75 L 9.359375 -17.84375 Z M 17.015625 -17.890625 "/></g></g></g><g fill="#ffcc04" fill-opacity="1"><g transform="translate(383.738288, 228.1879)"><g/></g></g><g fill="#ffcc04" fill-opacity="1"><g transform="translate(424.38096, 228.1879)"><g><path d="M 29.40625 -2.5 C 28.09375 -1.726562 26.492188 -1.019531 24.609375 -0.375 C 22.734375 0.257812 20.640625 0.578125 18.328125 0.578125 C 15.753906 0.578125 13.476562 0.144531 11.5 -0.71875 C 9.519531 -1.59375 7.851562 -2.804688 6.5 -4.359375 C 5.15625 -5.921875 4.132812 -7.769531 3.4375 -9.90625 C 2.75 -12.039062 2.40625 -14.363281 2.40625 -16.875 C 2.40625 -19.382812 2.75 -21.707031 3.4375 -23.84375 C 4.132812 -25.976562 5.15625 -27.828125 6.5 -29.390625 C 7.851562 -30.953125 9.519531 -32.171875 11.5 -33.046875 C 13.476562 -33.929688 15.753906 -34.375 18.328125 -34.375 C 20.410156 -34.375 22.269531 -34.195312 23.90625 -33.84375 C 25.550781 -33.488281 27.144531 -32.941406 28.6875 -32.203125 L 27.625 -28.296875 C 26.28125 -28.816406 24.957031 -29.21875 23.65625 -29.5 C 22.351562 -29.789062 20.992188 -29.9375 19.578125 -29.9375 C 19.347656 -29.9375 19.128906 -29.9375 18.921875 -29.9375 C 18.710938 -29.9375 18.5 -29.921875 18.28125 -29.890625 C 16.632812 -29.828125 15.179688 -29.445312 13.921875 -28.75 C 12.671875 -28.0625 11.617188 -27.140625 10.765625 -25.984375 C 9.921875 -24.828125 9.28125 -23.46875 8.84375 -21.90625 C 8.414062 -20.351562 8.203125 -18.675781 8.203125 -16.875 C 8.203125 -15.070312 8.394531 -13.359375 8.78125 -11.734375 C 9.164062 -10.117188 9.765625 -8.707031 10.578125 -7.5 C 11.398438 -6.289062 12.445312 -5.332031 13.71875 -4.625 C 14.988281 -3.914062 16.523438 -3.5625 18.328125 -3.5625 C 19.578125 -3.5625 20.753906 -3.78125 21.859375 -4.21875 C 22.972656 -4.65625 23.914062 -5.191406 24.6875 -5.828125 L 24.6875 -14.265625 L 17.796875 -14.265625 L 17.796875 -17.3125 L 29.359375 -17.3125 Z M 29.40625 -2.5 "/></g></g></g><g fill="#ffcc04" fill-opacity="1"><g transform="translate(483.149153, 228.1879)"><g/></g></g><g fill="#ffcc04" fill-opacity="1"><g transform="translate(523.791802, 228.1879)"><g><path d="M 18.28125 -34.375 C 20.84375 -34.375 23.113281 -33.929688 25.09375 -33.046875 C 27.070312 -32.171875 28.734375 -30.953125 30.078125 -29.390625 C 31.429688 -27.828125 32.453125 -25.976562 33.140625 -23.84375 C 33.835938 -21.707031 34.1875 -19.382812 34.1875 -16.875 C 34.1875 -14.363281 33.835938 -12.039062 33.140625 -9.90625 C 32.453125 -7.769531 31.429688 -5.921875 30.078125 -4.359375 C 28.734375 -2.804688 27.070312 -1.59375 25.09375 -0.71875 C 23.113281 0.144531 20.84375 0.578125 18.28125 0.578125 C 15.707031 0.578125 13.429688 0.144531 11.453125 -0.71875 C 9.472656 -1.59375 7.804688 -2.804688 6.453125 -4.359375 C 5.109375 -5.921875 4.085938 -7.769531 3.390625 -9.90625 C 2.703125 -12.039062 2.359375 -14.363281 2.359375 -16.875 C 2.359375 -19.382812 2.703125 -21.707031 3.390625 -23.84375 C 4.085938 -25.976562 5.109375 -27.828125 6.453125 -29.390625 C 7.804688 -30.953125 9.472656 -32.171875 11.453125 -33.046875 C 13.429688 -33.929688 15.707031 -34.375 18.28125 -34.375 Z M 18.28125 -30.1875 C 16.476562 -30.1875 14.941406 -29.832031 13.671875 -29.125 C 12.398438 -28.414062 11.351562 -27.457031 10.53125 -26.25 C 9.71875 -25.050781 9.117188 -23.640625 8.734375 -22.015625 C 8.347656 -20.390625 8.15625 -18.675781 8.15625 -16.875 C 8.15625 -15.070312 8.347656 -13.359375 8.734375 -11.734375 C 9.117188 -10.117188 9.71875 -8.707031 10.53125 -7.5 C 11.351562 -6.289062 12.398438 -5.332031 13.671875 -4.625 C 14.941406 -3.914062 16.476562 -3.5625 18.28125 -3.5625 C 20.039062 -3.5625 21.5625 -3.914062 22.84375 -4.625 C 24.132812 -5.332031 25.191406 -6.289062 26.015625 -7.5 C 26.835938 -8.707031 27.441406 -10.117188 27.828125 -11.734375 C 28.210938 -13.359375 28.40625 -15.070312 28.40625 -16.875 C 28.40625 -18.675781 28.210938 -20.390625 27.828125 -22.015625 C 27.441406 -23.640625 26.835938 -25.050781 26.015625 -26.25 C 25.191406 -27.457031 24.132812 -28.414062 22.84375 -29.125 C 21.5625 -29.832031 20.039062 -30.1875 18.28125 -30.1875 Z M 18.28125 -30.1875 "/></g></g></g><g fill="#ffcc04" fill-opacity="1"><g transform="translate(11.480669, 176.504075)"><g><path d="M 31.953125 -131.078125 C 39.796875 -131.078125 46.488281 -128.304688 52.03125 -122.765625 C 57.5625 -117.234375 60.328125 -110.570312 60.328125 -102.78125 L 60.328125 1.828125 L 43.453125 1.828125 L 43.453125 -102.78125 C 43.453125 -105.882812 42.328125 -108.5625 40.078125 -110.8125 C 37.816406 -113.0625 35.109375 -114.1875 31.953125 -114.1875 C 28.847656 -114.1875 26.171875 -113.0625 23.921875 -110.8125 C 21.660156 -108.5625 20.53125 -105.882812 20.53125 -102.78125 L 20.53125 1.828125 L 3.65625 1.828125 L 3.65625 -102.78125 C 3.65625 -110.570312 6.421875 -117.234375 11.953125 -122.765625 C 17.492188 -128.304688 24.160156 -131.078125 31.953125 -131.078125 Z M 31.953125 -131.078125 "/></g></g></g><g fill="#ffcc04" fill-opacity="1"><g transform="translate(76.541329, 176.504075)"><g><path d="M 50.390625 -131.078125 L 50.390625 -114.1875 L 20.53125 -114.1875 L 20.53125 -48.1875 L 33.765625 -48.1875 L 33.765625 -31.3125 L 20.53125 -31.3125 L 20.53125 -15.0625 L 50.390625 -15.0625 L 50.390625 1.828125 L 3.65625 1.828125 L 3.65625 -131.078125 Z M 50.390625 -131.078125 "/></g></g></g><g fill="#ffcc04" fill-opacity="1"><g transform="translate(131.653142, 176.504075)"><g><path d="M 83.15625 -131.078125 L 100.125 -131.078125 L 100.125 -26.46875 C 100.125 -18.675781 97.359375 -12.015625 91.828125 -6.484375 C 86.285156 -0.941406 79.59375 1.828125 71.75 1.828125 C 63.226562 1.828125 56.59375 -0.847656 51.84375 -6.203125 C 47.09375 -0.847656 40.460938 1.828125 31.953125 1.828125 C 24.160156 1.828125 17.492188 -0.941406 11.953125 -6.484375 C 6.421875 -12.015625 3.65625 -18.675781 3.65625 -26.46875 L 3.65625 -131.078125 L 20.53125 -131.078125 L 20.53125 -26.46875 C 20.53125 -23.363281 21.660156 -20.6875 23.921875 -18.4375 C 26.171875 -16.1875 28.847656 -15.0625 31.953125 -15.0625 C 35.109375 -15.0625 37.816406 -16.1875 40.078125 -18.4375 C 42.328125 -20.6875 43.453125 -23.363281 43.453125 -26.46875 L 43.453125 -131.078125 L 60.328125 -131.078125 L 60.328125 -26.46875 C 60.328125 -23.363281 61.457031 -20.6875 63.71875 -18.4375 C 65.90625 -16.1875 68.582031 -15.0625 71.75 -15.0625 C 74.90625 -15.0625 77.613281 -16.1875 79.875 -18.4375 C 82.0625 -20.6875 83.15625 -23.363281 83.15625 -26.46875 Z M 83.15625 -131.078125 "/></g></g></g><g fill="#ffcc04" fill-opacity="1"><g transform="translate(236.509205, 176.504075)"><g><path d="M 83.15625 -131.078125 L 100.125 -131.078125 L 100.125 -26.46875 C 100.125 -18.675781 97.359375 -12.015625 91.828125 -6.484375 C 86.285156 -0.941406 79.59375 1.828125 71.75 1.828125 C 63.226562 1.828125 56.59375 -0.847656 51.84375 -6.203125 C 47.09375 -0.847656 40.460938 1.828125 31.953125 1.828125 C 24.160156 1.828125 17.492188 -0.941406 11.953125 -6.484375 C 6.421875 -12.015625 3.65625 -18.675781 3.65625 -26.46875 L 3.65625 -131.078125 L 20.53125 -131.078125 L 20.53125 -26.46875 C 20.53125 -23.363281 21.660156 -20.6875 23.921875 -18.4375 C 26.171875 -16.1875 28.847656 -15.0625 31.953125 -15.0625 C 35.109375 -15.0625 37.816406 -16.1875 40.078125 -18.4375 C 42.328125 -20.6875 43.453125 -23.363281 43.453125 -26.46875 L 43.453125 -131.078125 L 60.328125 -131.078125 L 60.328125 -26.46875 C 60.328125 -23.363281 61.457031 -20.6875 63.71875 -18.4375 C 65.90625 -16.1875 68.582031 -15.0625 71.75 -15.0625 C 74.90625 -15.0625 77.613281 -16.1875 79.875 -18.4375 C 82.0625 -20.6875 83.15625 -23.363281 83.15625 -26.46875 Z M 83.15625 -131.078125 "/></g></g></g><g fill="#ffcc04" fill-opacity="1"><g transform="translate(336.425137, 179.124353)"><g><path d="M 72.71875 -11.84375 C 87.9375 -11.84375 100.941406 -17.238281 111.734375 -28.03125 C 122.523438 -38.820312 127.921875 -51.828125 127.921875 -67.046875 C 127.921875 -82.253906 122.523438 -95.253906 111.734375 -106.046875 C 100.941406 -116.847656 87.9375 -122.25 72.71875 -122.25 C 57.507812 -122.25 44.503906 -116.847656 33.703125 -106.046875 C 22.910156 -95.253906 17.515625 -82.253906 17.515625 -67.046875 C 17.515625 -51.828125 22.910156 -38.820312 33.703125 -28.03125 C 44.503906 -17.238281 57.507812 -11.84375 72.71875 -11.84375 Z M 72.71875 -132.1875 C 90.707031 -132.1875 106.046875 -125.8125 118.734375 -113.0625 C 131.484375 -100.375 137.859375 -85.035156 137.859375 -67.046875 C 137.859375 -49.046875 131.484375 -33.703125 118.734375 -21.015625 C 106.046875 -8.265625 90.707031 -1.890625 72.71875 -1.890625 C 54.726562 -1.890625 39.390625 -8.265625 26.703125 -21.015625 C 13.953125 -33.703125 7.578125 -49.046875 7.578125 -67.046875 C 7.578125 -85.035156 13.953125 -100.375 26.703125 -113.0625 C 39.390625 -125.8125 54.726562 -132.1875 72.71875 -132.1875 Z M 72.71875 -132.1875 "/></g></g><g transform="translate(479.973667, 179.124353)"><g><path d="M 17.515625 -46.203125 C 28.941406 -46.710938 38.128906 -50.628906 45.078125 -57.953125 C 52.140625 -65.335938 55.671875 -74.109375 55.671875 -84.265625 C 55.671875 -94.367188 52.140625 -103.113281 45.078125 -110.5 C 38.128906 -117.820312 28.941406 -121.738281 17.515625 -122.25 Z M 65.71875 -84.265625 C 65.71875 -75.554688 63.539062 -67.507812 59.1875 -60.125 C 54.882812 -52.925781 48.253906 -46.644531 39.296875 -41.28125 C 48.003906 -36.039062 54.472656 -29.984375 58.703125 -23.109375 C 63.054688 -15.972656 65.332031 -8.898438 65.53125 -1.890625 L 55.578125 -1.890625 C 55.203125 -10.472656 51.539062 -18.207031 44.59375 -25.09375 C 37.65625 -32.101562 28.628906 -35.859375 17.515625 -36.359375 L 17.515625 -1.890625 L 7.578125 -1.890625 L 7.578125 -132.1875 L 21.3125 -132.1875 L 21.3125 -132.09375 C 32.863281 -131.644531 43.148438 -126.816406 52.171875 -117.609375 C 61.203125 -108.265625 65.71875 -97.148438 65.71875 -84.265625 Z M 65.71875 -84.265625 "/></g></g><g transform="translate(551.369175, 179.124353)"><g><path d="M 17.515625 -132.1875 L 17.515625 -11.84375 L 48.484375 -11.84375 L 48.484375 -1.890625 L 7.578125 -1.890625 L 7.578125 -132.1875 Z M 17.515625 -132.1875 "/></g></g><g transform="translate(605.531286, 179.124353)"><g><path d="M 17.515625 -12.03125 C 32.597656 -13.976562 44.71875 -20.128906 53.875 -30.484375 C 63.09375 -40.898438 67.703125 -53.085938 67.703125 -67.046875 C 67.703125 -80.992188 63.09375 -93.175781 53.875 -103.59375 C 44.71875 -113.945312 32.597656 -120.097656 17.515625 -122.046875 Z M 12.59375 -132.1875 C 30.519531 -132.1875 45.859375 -125.8125 58.609375 -113.0625 C 71.359375 -100.375 77.734375 -85.035156 77.734375 -67.046875 C 77.734375 -49.046875 71.359375 -33.703125 58.609375 -21.015625 C 45.859375 -8.265625 30.519531 -1.890625 12.59375 -1.890625 L 7.578125 -1.890625 L 7.578125 -132.1875 Z M 12.59375 -132.1875 "/></g></g></g></svg>